<svg width="217" height="39" viewBox="0 0 217 39" fill="none" xmlns="http://www.w3.org/2000/svg">
<g clip-path="url(#clip0_1056_1383)">
<path d="M125.828 21.3288C121.162 21.3288 119.259 23.8216 119.259 28.0373C119.259 32.253 121.162 34.7459 125.828 34.7459C129.156 34.7459 131.059 33.4561 131.872 31.1558H136.73C135.544 35.7565 131.738 39.0097 125.838 39.0097C118.609 39.0097 114.516 34.1203 114.516 28.047C114.516 21.9737 118.609 17.0842 125.838 17.0842C132.121 17.0842 136.022 20.8187 136.921 25.8044H132.159C131.537 22.9265 129.539 21.348 125.828 21.348V21.3288Z" fill="#635770"/>
<path d="M144.139 9.93286V20.2315C145.755 18.4124 148.136 17.1226 151.751 17.1226C159.889 17.1226 160.788 22.7724 160.788 26.0257V38.5284H156.026V26.0257C156.026 23.1959 154.553 21.8581 151.741 21.425C148.27 20.8956 145.985 22.5703 144.464 24.9188C144.225 25.4482 144.177 25.8332 144.129 26.3048V38.5187H139.367V9.93286H144.129H144.139Z" fill="#635770"/>
<path d="M180.404 38.5285L171.836 17.1709H176.923L183.589 33.7449L190.206 17.1709H195.294L186.725 38.5285H180.395H180.404Z" fill="#635770"/>
<path d="M4.55191 8.44109H0V4.88951H9.11339V11.9927H13.6653V19.0958H9.11339V33.2925H13.6653V36.8441H0V33.2925H4.55191V8.44109ZM13.6653 19.0862H18.2172V26.1894H13.6653V19.0862ZM27.3306 33.2829H18.2172V26.1797H27.3306V33.2829ZM27.3306 26.1797V19.0766H31.8825V26.1797H27.3306ZM36.444 19.0862H31.8921V11.983H36.444V4.87988H45.5574V8.43146H41.0055V33.2733H45.5574V36.8248H31.8921V33.2733H36.444V19.0766V19.0862Z" fill="#635770"/>
<path d="M205.908 39.0001C198.679 39.0001 194.586 34.1107 194.586 28.0374C194.586 21.9641 198.679 17.1228 205.908 17.1228C212.191 17.1228 216.571 20.8573 216.992 25.8429V29.433H199.434C199.817 32.8306 201.768 34.7459 205.908 34.7459C208.624 34.7459 211.235 33.8797 211.856 32.3494H216.896C215.902 36.2763 211.283 39.0098 205.908 39.0098V39.0001ZM212.239 25.6408C212 22.8592 209.523 21.377 205.908 21.377C202.294 21.377 200.247 22.9074 199.578 25.6408H212.239Z" fill="#635770"/>
<path d="M209.034 12.2526C208.135 13.5616 207.084 14.6203 205.793 15.5154C204.492 14.6107 203.44 13.5519 202.551 12.2526C203.45 10.9436 204.502 9.88486 205.793 8.98975C207.093 9.89448 208.145 10.9532 209.034 12.2526Z" fill="#B4D6AA"/>
<path d="M169.236 6.74707V26.8631H164.426V6.74707H169.236Z" fill="#635770"/>
<path d="M167.772 35.0828C171.779 39.1157 161.881 39.1157 165.888 35.0828C161.881 39.1157 161.881 29.1539 165.888 33.1867C161.881 29.1539 171.779 29.1539 167.772 33.1867C171.779 29.1539 171.779 39.1157 167.772 35.0828Z" fill="#C0A6FF"/>
<path d="M55.8966 7.22827C63.0783 7.22827 67.1712 12.1562 67.1712 18.1429C67.1712 24.1296 63.0783 29.0575 55.8966 29.0575C48.7149 29.0575 44.5742 24.1296 44.5742 18.1429C44.5742 12.1562 48.6193 7.22827 55.8966 7.22827ZM62.4185 18.1525C62.4185 13.9849 60.5155 11.5402 55.8966 11.5402C51.2778 11.5402 49.327 13.9849 49.327 18.1525C49.327 22.3201 51.23 24.7648 55.8966 24.7648C60.5633 24.7648 62.4185 22.3201 62.4185 18.1525Z" fill="#635770"/>
<path d="M55.8776 31.3193C56.2505 30.6841 57.2164 30.9439 57.2355 31.685C57.8762 31.3289 58.5838 32.0412 58.23 32.686C58.9664 32.6957 59.2246 33.6678 58.5934 34.0528C59.2246 34.4281 58.9664 35.4003 58.23 35.4195C58.5838 36.0644 57.8762 36.7766 57.2355 36.4205C57.2259 37.1616 56.2601 37.4215 55.8776 36.7862C55.5046 37.4215 54.5388 37.1616 54.5196 36.4205C53.8789 36.7766 53.1713 36.0644 53.5251 35.4195C52.7888 35.4099 52.5306 34.4378 53.1617 34.0528C52.5306 33.6774 52.7888 32.7053 53.5251 32.686C53.1713 32.0412 53.8789 31.3289 54.5196 31.685C54.5292 30.9439 55.495 30.6841 55.8776 31.3193Z" fill="#FF7BBD"/>
<path d="M112.536 28.5859H107.774V25.9487C106.158 27.7196 103.299 29.0575 99.6361 29.0575C91.4981 29.0575 90.1211 21.6367 90.1211 18.3739V17.8926C90.1211 14.6394 91.4981 7.20903 99.6361 7.20903C103.299 7.20903 106.158 8.54689 107.774 10.3179V0H112.536V28.5859ZM100.114 25.0921C102.591 25.5733 105.25 24.9958 106.732 22.3105C107.306 21.2132 107.449 19.8176 107.449 18.191V18.0948C107.449 16.7569 107.114 14.8416 106.54 13.8309C105.45 11.9156 102.734 11.0494 100.401 11.0494C97.1689 11.0494 94.8834 13.8791 94.8834 17.9023C94.8834 22.8302 96.9777 24.4664 100.114 25.0824V25.0921Z" fill="#635770"/>
<path d="M101.33 31.4155L101.684 33.687L103.119 31.8968L102.296 34.0431L104.429 33.2154L102.65 34.6591L104.907 35.0152L102.65 35.3714L104.429 36.8151L102.296 35.9873L103.119 38.1337L101.684 36.3435L101.33 38.6149L100.977 36.3435L99.5422 38.1337L100.365 35.9873L98.232 36.8151L100.011 35.3714L97.7539 35.0152L100.011 34.6591L98.232 33.2154L100.365 34.0431L99.5422 31.8968L100.977 33.687L101.33 31.4155Z" fill="#FFAB6C"/>
<path d="M78.6271 17.1611C85.8088 17.1611 89.9017 22.0891 89.9017 28.0757C89.9017 34.0624 85.8088 38.9904 78.6271 38.9904C71.4454 38.9904 67.3047 34.0624 67.3047 28.0757C67.3047 22.0891 71.3498 17.1611 78.6271 17.1611ZM85.149 28.0854C85.149 23.9178 83.2459 21.4731 78.6271 21.4731C74.0082 21.4731 72.0574 23.9178 72.0574 28.0854C72.0574 32.2529 73.9604 34.6977 78.6271 34.6977C83.2938 34.6977 85.149 32.2529 85.149 28.0854Z" fill="#635770"/>
<path d="M80.4165 12.2428C83.0367 14.649 81.0572 16.6029 78.5996 14.0234C76.1515 16.6029 74.1624 14.649 76.7826 12.2428C74.1624 9.83659 76.1419 7.88274 78.5996 10.4622C81.0477 7.88274 83.0367 9.83659 80.4165 12.2428Z" fill="#9AB0ED"/>
</g>
<defs>
<clipPath id="clip0_1056_1383">
<rect width="217" height="39" fill="white"/>
</clipPath>
</defs>
</svg>
