<svg width="256" height="46" viewBox="0 0 256 46" fill="none" xmlns="http://www.w3.org/2000/svg">
<g clip-path="url(#clip0_121_334)">
<path d="M148.442 25.1568C142.936 25.1568 140.691 28.0971 140.691 33.0694C140.691 38.0418 142.936 40.9821 148.442 40.9821C152.368 40.9821 154.613 39.4609 155.572 36.7476H161.303C159.904 42.1741 155.414 46.0112 148.453 46.0112C139.924 46.0112 135.096 40.2442 135.096 33.0808C135.096 25.9174 139.924 20.1504 148.453 20.1504C155.865 20.1504 160.468 24.5551 161.528 30.4357H155.91C155.177 27.0413 152.819 25.1795 148.442 25.1795V25.1568Z" fill="white"/>
<path d="M170.046 11.7158V23.8629C171.953 21.7173 174.762 20.1961 179.027 20.1961C188.627 20.1961 189.688 26.86 189.688 30.6971V45.4439H184.069V30.6971C184.069 27.3595 182.332 25.7815 179.015 25.2706C174.92 24.6462 172.224 26.6215 170.43 29.3915C170.148 30.0159 170.092 30.47 170.035 31.0263V45.4325H164.417V11.7158H170.035H170.046Z" fill="white"/>
<path d="M212.826 45.4439L202.718 20.2529H208.72L216.583 39.8018L224.39 20.2529H230.391L220.283 45.4439H212.815H212.826Z" fill="white"/>
<path d="M5.37 9.95625H0V5.76721H10.7513V14.1453H16.1213V22.5234H10.7513V39.2682H16.1213V43.4572H0V39.2682H5.37V9.95625ZM16.1213 22.512H21.4913V30.8901H16.1213V22.512ZM32.2426 39.2568H21.4913V30.8788H32.2426V39.2568ZM32.2426 30.8788V22.5007H37.6126V30.8788H32.2426ZM42.9938 22.512H37.6238V14.1339H42.9938V5.75586H53.7451V9.9449H48.3751V39.2455H53.7451V43.4345H37.6238V39.2455H42.9938V22.5007V22.512Z" fill="white"/>
<path d="M242.913 45.9998C234.384 45.9998 229.556 40.2328 229.556 33.0694C229.556 25.9061 234.384 20.1958 242.913 20.1958C250.325 20.1958 255.492 24.6005 255.988 30.4811V34.7155H235.275C235.727 38.7229 238.028 40.9821 242.913 40.9821C246.117 40.9821 249.197 39.9604 249.93 38.1553H255.875C254.702 42.7871 249.253 46.0112 242.913 46.0112V45.9998ZM250.381 30.2427C250.099 26.9618 247.177 25.2136 242.913 25.2136C238.649 25.2136 236.234 27.0186 235.445 30.2427H250.381Z" fill="white"/>
<path d="M246.602 14.4515C245.542 15.9954 244.301 17.2442 242.778 18.3C241.243 17.2328 240.002 15.9841 238.953 14.4515C240.014 12.9076 241.255 11.6588 242.778 10.603C244.312 11.6702 245.553 12.9189 246.602 14.4515Z" fill="white"/>
<path d="M199.649 7.95801V31.6846H193.975V7.95801H199.649Z" fill="white"/>
<path d="M197.923 41.3796C202.65 46.1363 190.974 46.1363 195.7 41.3796C190.974 46.1363 190.974 34.3865 195.7 39.1432C190.974 34.3865 202.65 34.3865 197.923 39.1432C202.65 34.3865 202.65 46.1363 197.923 41.3796Z" fill="white"/>
<path d="M65.9403 8.52588C74.4127 8.52588 79.2412 14.3383 79.2412 21.3995C79.2412 28.4607 74.4127 34.2732 65.9403 34.2732C57.4679 34.2732 52.583 28.4607 52.583 21.3995C52.583 14.3383 57.3551 8.52588 65.9403 8.52588ZM73.6343 21.4109C73.6343 16.4953 71.3893 13.6118 65.9403 13.6118C60.4913 13.6118 58.1899 16.4953 58.1899 21.4109C58.1899 26.3265 60.4349 29.21 65.9403 29.21C71.4457 29.21 73.6343 26.3265 73.6343 21.4109Z" fill="white"/>
<path d="M65.9181 36.9409C66.3581 36.1917 67.4975 36.4982 67.5201 37.3723C68.2759 36.9523 69.1108 37.7924 68.6934 38.553C69.562 38.5643 69.8666 39.7109 69.1221 40.165C69.8666 40.6078 69.562 41.7544 68.6934 41.7771C69.1108 42.5377 68.2759 43.3778 67.5201 42.9577C67.5088 43.8318 66.3694 44.1384 65.9181 43.3891C65.4781 44.1384 64.3387 43.8318 64.3161 42.9577C63.5603 43.3778 62.7254 42.5377 63.1429 41.7771C62.2742 41.7657 61.9696 40.6191 62.7142 40.165C61.9696 39.7223 62.2742 38.5757 63.1429 38.553C62.7254 37.7924 63.5603 36.9523 64.3161 37.3723C64.3274 36.4982 65.4668 36.1917 65.9181 36.9409Z" fill="white"/>
<path d="M132.761 33.7167H127.143V30.6061C125.236 32.695 121.863 34.273 117.542 34.273C107.942 34.273 106.317 25.5202 106.317 21.6718V21.1041C106.317 17.267 107.942 8.50296 117.542 8.50296C121.863 8.50296 125.236 10.0809 127.143 12.1698V0H132.761V33.7167ZM118.107 29.5958C121.028 30.1634 124.165 29.4822 125.913 26.3149C126.59 25.0207 126.759 23.3746 126.759 21.4561V21.3425C126.759 19.7646 126.365 17.5054 125.688 16.3134C124.402 14.0543 121.198 13.0326 118.445 13.0326C114.632 13.0326 111.936 16.3702 111.936 21.1155C111.936 26.9279 114.406 28.8578 118.107 29.5844V29.5958Z" fill="white"/>
<path d="M119.54 37.0542L119.957 39.7334L121.649 37.6218L120.679 40.1534L123.195 39.1771L121.096 40.88L123.759 41.3L121.096 41.72L123.195 43.4229L120.679 42.4466L121.649 44.9782L119.957 42.8666L119.54 45.5458L119.122 42.8666L117.43 44.9782L118.4 42.4466L115.884 43.4229L117.983 41.72L115.32 41.3L117.983 40.88L115.884 39.1771L118.4 40.1534L117.43 37.6218L119.122 39.7334L119.54 37.0542Z" fill="white"/>
<path d="M92.7567 20.2417C101.229 20.2417 106.058 26.0541 106.058 33.1153C106.058 40.1765 101.229 45.989 92.7567 45.989C84.2843 45.989 79.3994 40.1765 79.3994 33.1153C79.3994 26.0541 84.1715 20.2417 92.7567 20.2417ZM100.451 33.1267C100.451 28.2111 98.2057 25.3276 92.7567 25.3276C87.3078 25.3276 85.0063 28.2111 85.0063 33.1267C85.0063 38.0423 87.2513 40.9258 92.7567 40.9258C98.2621 40.9258 100.451 38.0423 100.451 33.1267Z" fill="white"/>
<path d="M94.8666 14.4405C97.9577 17.2786 95.6225 19.5831 92.7231 16.5407C89.8351 19.5831 87.4885 17.2786 90.5796 14.4405C87.4885 11.6024 89.8238 9.29783 92.7231 12.3403C95.6112 9.29783 97.9577 11.6024 94.8666 14.4405Z" fill="white"/>
</g>
<defs>
<clipPath id="clip0_121_334">
<rect width="256" height="46" fill="white"/>
</clipPath>
</defs>
</svg>
