<svg width="256" height="47" viewBox="0 0 256 47" fill="none" xmlns="http://www.w3.org/2000/svg">
<path d="M148.449 25.1867C142.943 25.1867 140.698 28.1305 140.698 33.1088C140.698 38.0871 142.943 41.0309 148.449 41.0309C152.375 41.0309 154.62 39.5078 155.579 36.7914H161.31C159.911 42.2243 155.421 46.066 148.46 46.066C139.931 46.066 135.102 40.2921 135.102 33.1202C135.102 25.9482 139.931 20.1743 148.46 20.1743C155.872 20.1743 160.475 24.5843 161.536 30.4719H155.917C155.184 27.0735 152.826 25.2094 148.449 25.2094V25.1867Z" fill="white"/>
<path d="M170.054 11.73V23.8916C171.96 21.7434 174.769 20.2204 179.034 20.2204C188.635 20.2204 189.696 26.8922 189.696 30.7339V45.4983H184.077V30.7339C184.077 27.3923 182.34 25.8124 179.023 25.301C174.927 24.6758 172.231 26.6535 170.437 29.4268C170.155 30.0519 170.099 30.5066 170.042 31.0635V45.4869H164.424V11.73H170.042H170.054Z" fill="white"/>
<path d="M212.835 45.498L202.727 20.2769H208.729L216.592 39.8491L224.399 20.2769H230.401L220.293 45.498H212.824H212.835Z" fill="white"/>
<path d="M5.37024 9.96811H0V5.77406H10.7518V14.1622H16.122V22.5502H10.7518V39.3151H16.122V43.5091H0V39.3151H5.37024V9.96811ZM16.122 22.5389H21.4922V30.927H16.122V22.5389ZM32.244 39.3037H21.4922V30.9156H32.244V39.3037ZM32.244 30.9156V22.5275H37.6142V30.9156H32.244ZM42.9957 22.5389H37.6255V14.1508H42.9957V5.7627H53.7475V9.95674H48.3773V39.2923H53.7475V43.4864H37.6255V39.2923H42.9957V22.5275V22.5389Z" fill="white"/>
<path d="M242.924 46.0546C234.395 46.0546 229.566 40.2807 229.566 33.1087C229.566 25.9368 234.395 20.2197 242.924 20.2197C250.337 20.2197 255.504 24.6297 256 30.5173V34.7568H235.286C235.738 38.769 238.039 41.0308 242.924 41.0308C246.128 41.0308 249.208 40.0079 249.942 38.2007H255.887C254.714 42.838 249.265 46.066 242.924 46.066V46.0546ZM250.393 30.2786C250.111 26.9938 247.189 25.2435 242.924 25.2435C238.66 25.2435 236.245 27.0507 235.456 30.2786H250.393Z" fill="white"/>
<path d="M246.614 14.4688C245.553 16.0146 244.312 17.2648 242.789 18.3219C241.255 17.2535 240.014 16.0032 238.964 14.4688C240.025 12.923 241.266 11.6728 242.789 10.6157C244.323 11.6841 245.564 12.9344 246.614 14.4688Z" fill="#B4D6AA"/>
<path d="M199.658 7.96729V31.7222H193.983V7.96729H199.658Z" fill="white"/>
<path d="M197.932 41.429C202.659 46.1914 190.982 46.1914 195.709 41.429C190.982 46.1914 190.982 34.4276 195.709 39.1899C190.982 34.4276 202.659 34.4276 197.932 39.1899C202.659 34.4276 202.659 46.1914 197.932 41.429Z" fill="#C0A6FF"/>
<path d="M65.9433 8.53564C74.4161 8.53564 79.2448 14.355 79.2448 21.4247C79.2448 28.4943 74.4161 34.3137 65.9433 34.3137C57.4706 34.3137 52.5854 28.4943 52.5854 21.4247C52.5854 14.355 57.3577 8.53564 65.9433 8.53564ZM73.6377 21.436C73.6377 16.5146 71.3926 13.6276 65.9433 13.6276C60.4941 13.6276 58.1926 16.5146 58.1926 21.436C58.1926 26.3575 60.4377 29.2445 65.9433 29.2445C71.449 29.2445 73.6377 26.3575 73.6377 21.436Z" fill="white"/>
<path d="M65.9207 36.9849C66.3607 36.2347 67.5002 36.5416 67.5228 37.4168C68.2786 36.9963 69.1135 37.8373 68.6961 38.5989C69.5648 38.6102 69.8694 39.7582 69.1248 40.2128C69.8694 40.6561 69.5648 41.8041 68.6961 41.8268C69.1135 42.5883 68.2786 43.4294 67.5228 43.0089C67.5115 43.884 66.372 44.1909 65.9207 43.4408C65.4807 44.1909 64.3412 43.884 64.3187 43.0089C63.5628 43.4294 62.7279 42.5883 63.1453 41.8268C62.2766 41.8154 61.972 40.6675 62.7166 40.2128C61.972 39.7696 62.2766 38.6216 63.1453 38.5989C62.7279 37.8373 63.5628 36.9963 64.3187 37.4168C64.3299 36.5416 65.4694 36.2347 65.9207 36.9849Z" fill="#FF7BBD"/>
<path d="M132.767 33.757H127.148V30.6427C125.242 32.734 121.868 34.3139 117.547 34.3139C107.946 34.3139 106.322 25.5507 106.322 21.6977V21.1294C106.322 17.2877 107.946 8.51312 117.547 8.51312C121.868 8.51312 125.242 10.093 127.148 12.1843V0H132.767V33.757ZM118.111 29.6311C121.034 30.1994 124.17 29.5175 125.919 26.3463C126.596 25.0506 126.765 23.4026 126.765 21.4817V21.368C126.765 19.7882 126.37 17.5263 125.693 16.3329C124.407 14.0711 121.203 13.0481 118.45 13.0481C114.637 13.0481 111.94 16.3897 111.94 21.1407C111.94 26.9601 114.411 28.8923 118.111 29.6197V29.6311Z" fill="white"/>
<path d="M119.544 37.0986L119.962 39.781L121.654 37.6669L120.684 40.2015L123.2 39.2241L121.101 40.929L123.764 41.3495L121.101 41.7701L123.2 43.4749L120.684 42.4975L121.654 45.0321L119.962 42.918L119.544 45.6004L119.127 42.918L117.434 45.0321L118.405 42.4975L115.889 43.4749L117.987 41.7701L115.325 41.3495L117.987 40.929L115.889 39.2241L118.405 40.2015L117.434 37.6669L119.127 39.781L119.544 37.0986Z" fill="#FFAB6C"/>
<path d="M92.7607 20.2656C101.234 20.2656 106.062 26.085 106.062 33.1546C106.062 40.2243 101.234 46.0437 92.7607 46.0437C84.2879 46.0437 79.4028 40.2243 79.4028 33.1546C79.4028 26.085 84.1751 20.2656 92.7607 20.2656ZM100.455 33.166C100.455 28.2445 98.2099 25.3576 92.7607 25.3576C87.3115 25.3576 85.01 28.2445 85.01 33.166C85.01 38.0875 87.2551 40.9744 92.7607 40.9744C98.2664 40.9744 100.455 38.0875 100.455 33.166Z" fill="white"/>
<path d="M94.8703 14.4574C97.9616 17.2989 95.6262 19.6062 92.7267 16.5601C89.8385 19.6062 87.4919 17.2989 90.5831 14.4574C87.4919 11.6159 89.8272 9.30861 92.7267 12.3547C95.6149 9.30861 97.9616 11.6159 94.8703 14.4574Z" fill="#9AB0ED"/>
</svg>
