<svg width="391" height="71" viewBox="0 0 391 71" fill="none" xmlns="http://www.w3.org/2000/svg">
<path d="M226.732 38.4691C218.323 38.4691 214.894 42.9653 214.894 50.5689C214.894 58.1724 218.323 62.6686 226.732 62.6686C232.729 62.6686 236.158 60.3424 237.622 56.1934H246.376C244.239 64.4914 237.381 70.359 226.749 70.359C213.722 70.359 206.347 61.5402 206.347 50.5862C206.347 39.6322 213.722 30.8135 226.749 30.8135C238.07 30.8135 245.101 37.5491 246.721 46.5414H238.139C237.019 41.3508 233.418 38.5038 226.732 38.5038V38.4691Z" fill="white"/>
<path d="M259.73 17.9155V36.4905C262.642 33.2095 266.933 30.8833 273.447 30.8833C288.111 30.8833 289.73 41.0734 289.73 46.941V69.4914H281.149V46.941C281.149 41.8373 278.495 39.4243 273.429 38.6431C267.174 37.6883 263.056 40.7089 260.316 44.9447C259.885 45.8995 259.799 46.5938 259.713 47.4445V69.474H251.132V17.9155H259.713H259.73Z" fill="white"/>
<path d="M325.072 69.491L309.633 30.9697H318.8L330.81 60.8632L342.735 30.9697H351.902L336.462 69.491H325.055H325.072Z" fill="white"/>
<path d="M8.2022 15.2244H0V8.81863H16.4216V21.6301H24.6238V34.4416H16.4216V60.0473H24.6238V66.453H0V60.0473H8.2022V15.2244ZM24.6238 34.4243H32.826V47.2358H24.6238V34.4243ZM49.2476 60.0299H32.826V47.2184H49.2476V60.0299ZM49.2476 47.2184V34.4069H57.4498V47.2184H49.2476ZM65.6693 34.4243H57.4671V21.6128H65.6693V8.80127H82.0909V15.207H73.8887V60.0126H82.0909V66.4183H57.4671V60.0126H65.6693V34.4069V34.4243Z" fill="white"/>
<path d="M371.029 70.3415C358.002 70.3415 350.626 61.5228 350.626 50.5688C350.626 39.6148 358.002 30.8828 371.029 30.8828C382.35 30.8828 390.242 37.6184 391 46.6108V53.0859H359.363C360.052 59.2139 363.567 62.6685 371.029 62.6685C375.922 62.6685 380.627 61.1061 381.747 58.3459H390.828C389.035 65.4287 380.713 70.3589 371.029 70.3589V70.3415ZM382.436 46.2462C382.005 41.2292 377.542 38.5558 371.029 38.5558C364.515 38.5558 360.828 41.316 359.621 46.2462H382.436Z" fill="white"/>
<path d="M376.663 22.0988C375.044 24.4598 373.148 26.3693 370.822 27.9838C368.478 26.352 366.583 24.4424 364.98 22.0988C366.6 19.7379 368.496 17.8283 370.822 16.2139C373.165 17.8457 375.061 19.7553 376.663 22.0988Z" fill="#B4D6AA"/>
<path d="M304.946 12.1689V48.4508H296.279V12.1689H304.946Z" fill="white"/>
<path d="M302.31 63.2765C309.53 70.5503 291.695 70.5503 298.915 63.2765C291.695 70.5503 291.695 52.5829 298.915 59.8567C291.695 52.5829 309.53 52.5829 302.31 59.8567C309.53 52.5829 309.53 70.5503 302.31 63.2765Z" fill="#C0A6FF"/>
<path d="M100.718 13.0371C113.659 13.0371 121.034 21.9253 121.034 32.7231C121.034 43.5208 113.659 52.409 100.718 52.409C87.7772 52.409 80.3159 43.5208 80.3159 32.7231C80.3159 21.9253 87.6048 13.0371 100.718 13.0371ZM112.47 32.7404C112.47 25.2237 109.041 20.8143 100.718 20.8143C92.3952 20.8143 88.88 25.2237 88.88 32.7404C88.88 40.2572 92.309 44.6666 100.718 44.6666C109.127 44.6666 112.47 40.2572 112.47 32.7404Z" fill="white"/>
<path d="M100.684 56.4885C101.356 55.3427 103.096 55.8114 103.13 57.1481C104.285 56.5058 105.56 57.7904 104.923 58.9535C106.249 58.9709 106.715 60.7242 105.577 61.4186C106.715 62.0957 106.249 63.849 104.923 63.8837C105.56 65.0468 104.285 66.3314 103.13 65.6891C103.113 67.0258 101.373 67.4945 100.684 66.3488C100.012 67.4945 98.2712 67.0258 98.2367 65.6891C97.0822 66.3314 95.8071 65.0468 96.4446 63.8837C95.1178 63.8664 94.6525 62.113 95.7898 61.4186C94.6525 60.7416 95.1178 58.9883 96.4446 58.9535C95.8071 57.7904 97.0822 56.5058 98.2367 57.1481C98.2539 55.8114 99.9943 55.3427 100.684 56.4885Z" fill="#FF7BBD"/>
<path d="M202.78 51.5585H194.199V46.8019C191.287 49.9961 186.135 52.4091 179.535 52.4091C164.871 52.4091 162.39 39.0247 162.39 33.1398V32.2718C162.39 26.4042 164.871 13.0025 179.535 13.0025C186.135 13.0025 191.287 15.4155 194.199 18.6097V0H202.78V51.5585ZM180.397 45.2569C184.86 46.1249 189.65 45.0833 192.321 40.2399C193.355 38.2609 193.613 35.7437 193.613 32.8099V32.6363C193.613 30.2233 193.01 26.7687 191.976 24.946C190.012 21.4914 185.118 19.929 180.914 19.929C175.089 19.929 170.971 25.0328 170.971 32.2892C170.971 41.1773 174.745 44.1285 180.397 45.2395V45.2569Z" fill="white"/>
<path d="M182.585 56.6626L183.222 60.7595L185.807 57.5306L184.325 61.4018L188.168 59.9089L184.963 62.5128L189.029 63.1551L184.963 63.7975L188.168 66.4014L184.325 64.9085L185.807 68.7797L183.222 65.5508L182.585 69.6477L181.947 65.5508L179.362 68.7797L180.844 64.9085L177.002 66.4014L180.207 63.7975L176.14 63.1551L180.207 62.5128L177.002 59.9089L180.844 61.4018L179.362 57.5306L181.947 60.7595L182.585 56.6626Z" fill="#FFAB6C"/>
<path d="M141.677 30.9526C154.618 30.9526 161.993 39.8408 161.993 50.6386C161.993 61.4364 154.618 70.3246 141.677 70.3246C128.737 70.3246 121.275 61.4364 121.275 50.6386C121.275 39.8408 128.564 30.9526 141.677 30.9526ZM153.429 50.656C153.429 43.1392 150 38.7298 141.677 38.7298C133.355 38.7298 129.839 43.1392 129.839 50.656C129.839 58.1727 133.269 62.5821 141.677 62.5821C150.086 62.5821 153.429 58.1727 153.429 50.656Z" fill="white"/>
<path d="M144.9 22.0816C149.621 26.4215 146.054 29.9455 141.626 25.2931C137.215 29.9455 133.631 26.4215 138.352 22.0816C133.631 17.7416 137.197 14.2176 141.626 18.87C146.037 14.2176 149.621 17.7416 144.9 22.0816Z" fill="#9AB0ED"/>
</svg>
