<svg width="256" height="46" viewBox="0 0 256 46" fill="none" xmlns="http://www.w3.org/2000/svg">
<g clip-path="url(#clip0_110_1176)">
<path d="M148.442 25.157C142.937 25.157 140.692 28.0972 140.692 33.0696C140.692 38.042 142.937 40.9822 148.442 40.9822C152.368 40.9822 154.613 39.461 155.572 36.7478H161.303C159.904 42.1742 155.414 46.0114 148.453 46.0114C139.925 46.0114 135.096 40.2443 135.096 33.0809C135.096 25.9176 139.925 20.1505 148.453 20.1505C155.865 20.1505 160.468 24.5553 161.529 30.4358H155.911C155.177 27.0415 152.819 25.1797 148.442 25.1797V25.157Z" fill="#635770"/>
<path d="M170.046 11.7157V23.8628C171.953 21.7172 174.762 20.196 179.026 20.196C188.627 20.196 189.687 26.8598 189.687 30.6969V45.4437H184.069V30.6969C184.069 27.3593 182.332 25.7813 179.015 25.2705C174.92 24.6461 172.223 26.6214 170.43 29.3914C170.148 30.0158 170.091 30.4699 170.035 31.0262V45.4324H164.417V11.7157H170.035H170.046Z" fill="#635770"/>
<path d="M212.826 45.4437L202.717 20.2527H208.719L216.582 39.8016L224.389 20.2527H230.391L220.283 45.4437H212.814H212.826Z" fill="#635770"/>
<path d="M5.37 9.95607H0V5.76703H10.7513V14.1451H16.1213V22.5232H10.7513V39.268H16.1213V43.4571H0V39.268H5.37V9.95607ZM16.1213 22.5118H21.4913V30.8899H16.1213V22.5118ZM32.2426 39.2567H21.4913V30.8786H32.2426V39.2567ZM32.2426 30.8786V22.5005H37.6126V30.8786H32.2426ZM42.9938 22.5118H37.6238V14.1338H42.9938V5.75568H53.7451V9.94472H48.3751V39.2453H53.7451V43.4344H37.6238V39.2453H42.9938V22.5005V22.5118Z" fill="#635770"/>
<path d="M242.913 46C234.385 46 229.556 40.233 229.556 33.0696C229.556 25.9062 234.385 20.196 242.913 20.196C250.325 20.196 255.492 24.6007 255.989 30.4812V34.7157H235.276C235.727 38.7231 238.029 40.9822 242.913 40.9822C246.117 40.9822 249.197 39.9605 249.931 38.1555H255.876C254.703 42.7873 249.254 46.0114 242.913 46.0114V46ZM250.382 30.2428C250.1 26.962 247.178 25.2137 242.913 25.2137C238.649 25.2137 236.235 27.0188 235.445 30.2428H250.382Z" fill="#635770"/>
<path d="M246.602 14.4516C245.542 15.9956 244.301 17.2443 242.778 18.3001C241.244 17.233 240.003 15.9842 238.954 14.4516C240.014 12.9077 241.255 11.6589 242.778 10.6032C244.312 11.6703 245.553 12.919 246.602 14.4516Z" fill="#B4D6AA"/>
<path d="M199.649 7.95805V31.6846H193.975V7.95805H199.649Z" fill="#635770"/>
<path d="M197.923 41.3796C202.65 46.1362 190.974 46.1362 195.7 41.3796C190.974 46.1362 190.974 34.3865 195.7 39.1431C190.974 34.3865 202.65 34.3865 197.923 39.1431C202.65 34.3865 202.65 46.1362 197.923 41.3796Z" fill="#C0A6FF"/>
<path d="M65.9403 8.52567C74.4127 8.52567 79.2412 14.3381 79.2412 21.3993C79.2412 28.4605 74.4127 34.273 65.9403 34.273C57.4679 34.273 52.583 28.4605 52.583 21.3993C52.583 14.3381 57.3551 8.52567 65.9403 8.52567ZM73.6343 21.4107C73.6343 16.4951 71.3893 13.6115 65.9403 13.6115C60.4913 13.6115 58.1899 16.4951 58.1899 21.4107C58.1899 26.3263 60.4349 29.2098 65.9403 29.2098C71.4457 29.2098 73.6343 26.3263 73.6343 21.4107Z" fill="#635770"/>
<path d="M65.9181 36.9408C66.3581 36.1915 67.4975 36.498 67.5201 37.3722C68.2759 36.9521 69.1108 37.7922 68.6934 38.5528C69.562 38.5642 69.8666 39.7108 69.1221 40.1649C69.8666 40.6076 69.562 41.7542 68.6934 41.7769C69.1108 42.5375 68.2759 43.3776 67.5201 42.9576C67.5088 43.8317 66.3694 44.1382 65.9181 43.3889C65.4781 44.1382 64.3387 43.8317 64.3161 42.9576C63.5603 43.3776 62.7254 42.5375 63.1429 41.7769C62.2742 41.7655 61.9696 40.619 62.7142 40.1649C61.9696 39.7221 62.2742 38.5755 63.1429 38.5528C62.7254 37.7922 63.5603 36.9521 64.3161 37.3722C64.3274 36.498 65.4668 36.1915 65.9181 36.9408Z" fill="#FF7BBD"/>
<path d="M132.761 33.7167H127.143V30.6061C125.236 32.695 121.863 34.273 117.542 34.273C107.942 34.273 106.317 25.5202 106.317 21.6718V21.1041C106.317 17.267 107.942 8.50296 117.542 8.50296C121.863 8.50296 125.236 10.0809 127.143 12.1698V0H132.761V33.7167ZM118.107 29.5958C121.028 30.1634 124.165 29.4822 125.913 26.3149C126.59 25.0207 126.759 23.3746 126.759 21.4561V21.3425C126.759 19.7646 126.365 17.5054 125.688 16.3134C124.402 14.0543 121.198 13.0326 118.445 13.0326C114.632 13.0326 111.936 16.3702 111.936 21.1155C111.936 26.9279 114.406 28.8578 118.107 29.5844V29.5958Z" fill="#635770"/>
<path d="M119.54 37.0543L119.957 39.7335L121.649 37.6219L120.679 40.1535L123.195 39.1772L121.096 40.8801L123.759 41.3001L121.096 41.7201L123.195 43.423L120.679 42.4467L121.649 44.9783L119.957 42.8667L119.54 45.5459L119.122 42.8667L117.43 44.9783L118.4 42.4467L115.884 43.423L117.983 41.7201L115.32 41.3001L117.983 40.8801L115.884 39.1772L118.4 40.1535L117.43 37.6219L119.122 39.7335L119.54 37.0543Z" fill="#FFAB6C"/>
<path d="M92.7567 20.2414C101.229 20.2414 106.058 26.0538 106.058 33.115C106.058 40.1762 101.229 45.9886 92.7567 45.9886C84.2843 45.9886 79.3994 40.1762 79.3994 33.115C79.3994 26.0538 84.1715 20.2414 92.7567 20.2414ZM100.451 33.1264C100.451 28.2108 98.2057 25.3272 92.7567 25.3272C87.3078 25.3272 85.0063 28.2108 85.0063 33.1264C85.0063 38.042 87.2513 40.9255 92.7567 40.9255C98.2621 40.9255 100.451 38.042 100.451 33.1264Z" fill="#635770"/>
<path d="M94.8666 14.4403C97.9577 17.2784 95.6225 19.5829 92.7231 16.5405C89.8351 19.5829 87.4885 17.2784 90.5796 14.4403C87.4885 11.6022 89.8238 9.29763 92.7231 12.3401C95.6112 9.29763 97.9577 11.6022 94.8666 14.4403Z" fill="#9AB0ED"/>
</g>
<defs>
<clipPath id="clip0_110_1176">
<rect width="256" height="46" fill="white"/>
</clipPath>
</defs>
</svg>
